<?xml version="1.0" encoding="UTF-8"?>
<!-- Created with Inkscape (http://www.inkscape.org/) -->
<svg width="1982.7" height="399.22" version="1.1" viewBox="0 0 1982.7 399.22" xmlns="http://www.w3.org/2000/svg">
 <g transform="translate(-253.09 -770.54)">
  <g>
   <path d="m368.61 1024.7-27.448 145.1 355.78-116.41-102.03-102.71z" fill="#0068ab"/>
   <path d="m416.64 771.16-44.427 234.74 214.64-63.386z" fill="#8ac566"/>
   <path d="m372.21 1005.9-3.5939 18.75 226.3-74.011-8.073-8.125z" fill="#1c1714"/>
   <path d="m368.46 1024.7-27.292 145.05-88.073-116.41 58.282-101.04z" fill="#97c5dc"/>
   <path d="m416.32 770.54-44.323 235.42-55.573-62.292z" fill="#bfdca8"/>
   <path d="m372 1006-3.5937 18.75-57.031-72.396 5.052-8.6459z" fill="#1c1714"/>
  </g>
  <g fill="#0068a3">
   <path d="m883.47 972.79c0-8.125-1.0417-15.833-2.5-22.917-1.6666-6.875-3.75-12.917-6.0416-18.542-2.2917-5.4167-4.7917-10.208-7.7084-13.958-2.7083-3.75-5.2083-6.4584-7.5-8.125 1.25-1.4584 2.9167-3.5417 4.7917-5.8334 1.875-2.5 3.75-5.8333 5.625-9.5833 1.4583-3.75 2.9167-7.9167 4.1667-13.125 1.0416-5 1.6666-10.833 1.6666-17.292 0-10.417-1.875-19.583-5.625-28.125-3.9583-8.125-9.375-15-15.833-20.833-6.875-5.8333-15-10.208-23.958-13.333-9.1667-3.125-19.167-4.5834-30-4.5834h-37.292v264.17h37.292c10 0 20-1.4583 30-3.75 10-2.5 18.958-7.2917 26.667-13.75 7.9167-6.4583 14.167-15.625 18.958-26.875 4.7916-11.458 7.2916-26.042 7.2916-43.542zm-53.542-109.79c0 7.0833-1.875 12.708-5.4167 17.083-3.75 4.375-8.75 6.875-14.583 6.875v-47.5c6.4583 0 11.458 2.2917 15 6.6667 3.3333 4.5833 5 10.417 5 16.875zm5.8333 109.79c0 15.417-2.0833 27.083-6.875 34.167-4.5833 7.2917-11.25 11.042-18.958 11.042v-86.667c1.25 0 3.125 0 5.2083-0.208 2.2917-0.417 4.1667-0.833 5.625-1.0417 1.0417 1.0417 2.5 2.7083 4.375 5 1.6667 2.5 3.5417 5.625 5 9.375 1.6667 3.75 2.9167 7.7083 4.1667 12.5 0.833 4.7917 1.4583 10 1.4583 15.833z"/>
   <path d="m1017.7 1060.7-36.042-264.17h-53.334l-36.25 264.17h42.084l5-42.708h31.25l5 42.708zm-52.708-85.417h-21.042l10.833-101.04z"/>
   <path d="m1130.1 839.46v-42.917h-118.75v42.917h35.834v221.25h46.875v-221.25z"/>
   <path d="m1229.8 1060.1v-41.875c-2.2917 0.417-4.375 0.833-6.25 1.0417-1.875 0.417-4.1667 0.417-6.875 0.417-3.125 0-6.4583-0.625-10.625-2.5-3.9584-1.6666-8.1251-5.4167-11.458-11.458-3.75-5.8333-6.875-15.208-9.375-27.083-2.5-12.083-3.75-28.75-3.75-50s1.25-37.917 3.75-50c2.5-11.875 5.625-21.042 9.375-27.292 3.3333-5.8333 7.5-9.5833 11.458-11.25 4.1667-1.6667 7.5-2.5 10.625-2.5 2.7083 0 5 0 6.875 0.417s3.9583 0.625 6.25 1.0417v-41.667s-1.875-0.417-5.4167-1.4583c-3.3333-0.625-7.7083-1.0417-12.708-1.0417-5.2083 0-10.625 0.417-16.25 1.4583-5.8333 1.0417-11.458 2.7083-17.083 5.8333-5.8334 2.9167-11.25 7.7084-16.458 13.542-5.4166 5.8333-9.5833 13.75-13.75 23.75-3.9583 9.7917-7.5 22.083-9.5834 36.458-2.5 14.792-3.75 32.292-3.75 52.709 0 20.625 1.25 37.917 3.75 52.292 2.0834 14.792 5.6251 26.667 9.5834 36.667 4.1667 10 8.3334 18.125 13.75 23.958 5.2084 5.8334 10.625 10.208 16.458 13.334 5.625 3.125 11.25 5.2083 17.083 6.25 5.625 1.0416 11.042 1.25 16.25 1.25 5 0 9.375-0.208 12.708-1.0417 3.5417-1.0417 5.4167-1.25 5.4167-1.25z"/>
   <path d="m1376 1060.7v-264.17h-46.667v140h-29.583v-140h-46.667v140h-12.5v42.709h12.5v81.459h46.667v-81.459h29.583v81.459z"/>
   <path d="m1551.7 1060.7v-264.17h-21.667l-51.042 135.83-51.25-135.83h-21.667v264.17h44.583v-108.75l18.958 51.25h18.542l19.167-51.25v108.75z"/>
   <path d="m1693.8 1060.7-36.042-264.17h-53.334l-36.25 264.17h42.084l5-42.708h31.25l5 42.708zm-52.708-85.417h-21.042l10.833-101.04z"/>
   <path d="m1809.2 989.25c0-7.2917-0.625-13.958-1.4583-20.625-1.25-6.4584-3.1251-12.5-5.4168-18.75-2.5-6.25-5.625-12.292-9.1666-18.75-4.1667-6.6667-8.75-13.333-14.167-20.833-4.375-6.25-8.1251-11.667-11.458-16.875-3.5417-4.7916-6.25-9.1666-8.3334-13.75-2.5-4.375-4.375-8.5416-5.4166-12.5-1.25-3.75-1.875-7.9166-1.875-12.292 0-5.2084 1.6666-9.375 4.375-12.708 2.9166-3.5416 6.875-5.2083 11.875-5.2083 2.7083 0 5.2084 0.417 7.5001 0.625 2.0833 0.417 4.375 1.0418 6.4583 2.0834l16.458-36.875c-3.3333-2.5-7.9166-4.1666-13.333-5.8333-5.2083-1.4583-11.25-2.0833-17.083-2.0833-18.958 0-33.75 5.8333-44.584 17.917-10.833 11.875-16.458 28.333-16.458 49.167 0 6.25 0.625 11.875 1.4583 17.5 1.0417 5.8333 2.9167 11.25 5.4167 17.083 2.0833 5.8334 5.2083 11.875 8.9583 18.125 3.5417 6.0417 7.9167 12.917 13.125 20.208 4.3751 5.8333 8.1251 11.25 11.458 16.458 3.5416 5 6.25 10.208 8.75 15 2.2916 4.7917 4.1666 9.5833 5.4166 14.375 1.25 5 1.875 10.208 1.875 15.417 0 7.0833-1.875 12.5-6.0416 16.667-3.9584 4.1668-8.9584 6.2501-15 6.2501-3.9585 0-8.1251-0.833-11.667-1.875-3.75-0.833-6.875-2.2917-9.7917-3.9584l-17.083 38.542c5.2084 3.75 11.25 6.25 17.5 7.9166 6.25 2.0834 13.333 2.7084 21.042 2.7084 9.7916 0 18.542-1.6667 26.458-4.7917 8.1251-3.125 15.417-7.9167 21.25-13.958 5.8333-6.25 10.625-13.75 13.958-22.917 3.5418-9.1668 5.0001-19.583 5.0001-31.458z"/>
   <path d="m1926.4 839.46v-42.917h-118.75v42.917h35.834v221.25h46.875v-221.25z"/>
   <path d="m2040.4 1060.7v-42.708h-50.834v-38.75h41.042v-42.709h-41.042v-97.084h50.834v-42.917h-97.5v140h-12.5v42.709h12.5v81.459z"/>
   <path d="m2179.5 878.63c0-13.958-2.0834-25.833-6.4584-36.459-4.3751-10.208-10.208-18.958-17.5-25.625-7.5-6.6666-16.042-11.667-25.833-15.208-10-2.9167-20.417-4.7917-31.667-4.7917h-36.875v264.17h46.875v-70.834c2.7084 2.7083 5.4167 6.875 8.9584 12.083 3.125 5 5.8333 11.458 8.75 18.75 2.5 6.875 3.9583 13.75 5 20.208 0.833 6.4584 1.25 13.334 1.25 19.792h46.667c0-9.1667-0.625-18.542-1.6666-28.125-0.833-9.5833-3.3334-19.375-6.6668-29.375-3.125-8.5417-6.875-16.667-11.25-24.167-4.7917-7.2916-8.75-13.333-12.292-17.917 2.9167-2.0834 6.0417-5 9.7917-9.1667 3.75-3.75 7.5-9.1667 10.833-15.833 3.5417-6.4584 6.2501-14.583 8.7501-24.167 2.0834-9.375 3.3334-20.625 3.3334-33.333zm-46.667 0.417c0 8.9584-0.833 16.875-2.7083 23.542-2.2917 6.875-4.375 12.708-6.875 17.083-2.9167 4.7917-5.4167 8.3334-8.125 10.625-2.9167 2.5-5.4167 3.75-7.0834 3.75v-93.959c7.7084 0 13.958 3.3333 18.333 10s6.4583 16.25 6.4583 28.958z"/>
   <path d="m782.45 1169.2v-8.125h-14.167v-16.25h11.25v-8.3333h-11.25v-33.334h14.167v-8.3333h-24.375v41.667h-3.3333v8.3333h3.3333v24.375z"/>
   <path d="m821.66 1117.3c0-4.1668-0.417-7.7084-1.6666-10.625-1.25-2.9167-2.7084-5.2083-4.7917-6.875-1.875-1.6667-4.1667-2.9167-6.6667-3.75-2.5-0.833-5.2083-1.25-7.9166-1.25h-7.9167v74.375h10.208v-23.125c0.833 1.0417 1.875 2.5001 2.9167 4.1668 1.0417 1.6666 2.0833 3.75 2.9167 5.8333 1.0416 2.0833 1.4583 4.1667 1.875 6.4583 0.417 2.2917 0.417 4.5834 0.417 6.6667h10.208c0-2.5-0.208-5.2083-0.625-8.125-0.62501-2.7083-1.25-5.625-2.5-8.5417-1.0417-2.2916-2.0834-4.5834-3.3334-6.6667-1.25-1.875-2.5-3.5417-3.75-4.7917 1.0417-0.625 1.875-1.4583 3.125-2.7083 1.25-1.25 2.5-2.7084 3.5417-4.5834 1.0417-2.0833 2.0833-4.375 2.9167-7.0833 0.625-2.7083 1.0416-5.8333 1.0416-9.375zm-10.208 0c0 3.3333-0.417 6.0417-1.0417 8.3333-0.625 2.2917-1.4583 4.1667-2.5 5.625-0.83301 1.4584-1.875 2.5-2.9166 3.3334-0.833 0.833-1.6667 1.25-2.0834 1.25v-32.708c1.0417 0 2.0834 0.208 3.125 0.625 1.25 0.625 2.0834 1.25 2.9167 2.2917 0.833 1.0417 1.4583 2.5 1.875 4.375 0.417 1.875 0.625 4.1667 0.625 6.8751z"/>
   <path d="m862.39 1117.5c0-4.1667-0.625-7.9167-1.6667-10.625-1.25-2.9166-2.7083-5.2083-4.7917-7.0833-2.0833-1.6667-4.375-2.9167-6.875-3.75-2.5-0.833-5.2083-1.25-7.9166-1.25h-7.7084v74.375h10.208v-23.958c1.0416-0.208 2.5-0.833 4.5833-1.875 2.0833-1.0417 4.1667-2.7084 6.25-4.7917 2.2917-2.2917 3.9583-5 5.625-8.5417 1.6667-3.3333 2.2917-7.5 2.2917-12.5zm-10.208-0.208c0 3.5417-0.417 6.25-1.0416 8.75-0.83301 2.2917-1.6667 3.9583-2.5 5.4167-1.0417 1.4583-2.0834 2.5-2.9167 3.3333-1.0417 0.625-1.6667 1.0417-2.0833 1.0417v-32.708c1.0416 0 2.0833 0.208 3.125 0.625 1.0416 0.417 2.0833 1.25 2.9166 2.2917 0.625 1.0417 1.25 2.5 1.875 4.375 0.417 1.6667 0.625 4.1667 0.625 6.8751z"/>
   <path d="m910.87 1150.4c0-2.2918-0.208-4.3751-0.62501-6.4584-0.625-2.0834-1.0416-3.9584-1.875-6.0417-0.833-1.875-1.875-3.9583-2.9166-5.8333-1.4584-2.0834-2.7084-4.1667-4.1667-6.25-2.2917-3.3334-4.1667-6.25-5.625-8.9584-1.4583-2.5001-2.2917-5.2084-2.2917-7.9167 0-1.875 0.62501-3.5417 1.6667-4.7917 1.0417-1.0417 2.5-1.6667 3.9583-1.6667 1.0417 0 1.875 0 2.5 0.208 0.833 0.208 1.4584 0.417 2.2917 0.625l3.3333-7.0834c-0.417-0.208-1.4583-0.625-2.9166-1.25-1.4584-0.417-3.125-0.625-5-0.625-4.7917 0-8.75 1.25-11.458 4.1667-2.9166 2.7083-4.375 6.6667-4.375 11.458 0 1.875 0.208 3.5417 0.417 5.2085 0.41701 1.6666 1.0417 3.3333 1.6667 5 0.833 1.6666 1.6666 3.5416 2.9166 5.4166 1.0417 1.6667 2.2917 3.9584 3.9584 6.0417 2.2916 3.3333 4.1666 6.4583 5.8333 9.5833 1.6667 3.3334 2.5 6.6667 2.5 10.208 0 1.875-0.20801 3.3333-0.62501 4.5833-0.625 1.25-1.25 2.2917-1.875 2.9167-0.833 1.0416-1.6667 1.4583-2.5 1.875-1.0417 0.417-1.875 0.625-2.7083 0.625-2.7084 0-4.7917-0.625-6.4584-1.6667l-3.5416 7.2917c2.7083 1.6666 6.0416 2.5 10 2.5 2.2916 0 4.375-0.417 6.4583-1.0417 2.0833-0.625 3.9583-1.875 5.8333-3.3333 1.4584-1.6667 2.9167-3.5417 3.9584-6.0417 1.25-2.5 1.6666-5.2083 1.6666-8.75z"/>
   <path d="m948.27 1144.4c0-5.625-0.417-10.208-1.25-13.542-1.25-3.3334-2.2917-5.8334-3.75-7.7084-1.4584-1.6666-2.9167-2.9166-4.5834-3.3333-1.6666-0.417-3.125-0.833-4.375-0.833-1.25 0-2.5 0.417-4.1666 0.833-1.6667 0.417-3.125 1.6667-4.5834 3.3333-1.4583 1.875-2.7083 4.375-3.75 7.7084-1.0416 3.3333-1.4583 7.9166-1.4583 13.542 0 5.6251 0.41701 10 1.4583 13.334 1.0417 3.5416 2.2917 6.0416 3.75 7.7083 1.4584 1.875 2.9167 2.9167 4.5834 3.5417 1.6666 0.417 2.9166 0.625 4.1666 0.625 1.25 0 2.7084-0.208 4.375-0.625 1.6667-0.625 3.125-1.6667 4.5834-3.5417 1.4583-1.6667 2.5-4.1667 3.75-7.7083 0.83301-3.3334 1.25-7.7084 1.25-13.334zm-9.375 0c0 3.3334-0.208 6.2501-0.417 8.3335-0.417 2.2916-0.625 4.1666-1.0417 5.4166-0.62501 1.25-1.0416 2.0834-1.4583 2.5-0.417 0.625-1.0417 0.833-1.6667 0.833-0.62501 0-1.25-0.208-1.6666-0.833-0.417-0.417-0.833-1.25-1.25-2.5-0.625-1.25-0.833-3.125-1.0417-5.4166-0.417-2.0834-0.417-5.0001-0.417-8.3335 0-3.5416 0-6.4583 0.417-8.5416 0.20801-2.2917 0.41701-3.9584 1.0417-5.2084 0.417-1.25 0.833-2.2916 1.25-2.7083 0.417-0.625 1.0416-0.625 1.6666-0.625 0.625 0 1.25 0 1.6667 0.625 0.417 0.417 0.833 1.4583 1.4583 2.7083 0.417 1.25 0.625 2.9167 1.0417 5.2084 0.208 2.0833 0.417 5 0.417 8.5416z"/>
   <path d="m977.96 1102.3v-7.5s-0.208-0.208-0.83301-0.208c-0.833-0.208-1.4583-0.208-2.2916-0.208-1.4584 0-2.9167 0.208-4.5834 0.833-1.6666 0.417-3.125 1.25-4.5833 2.7083-1.4583 1.25-2.7083 3.125-3.75 5.625s-1.4583 5.8333-1.4583 9.7917v6.2501h-3.125v8.125h3.125v41.458h9.5833v-41.458h7.5v-8.125h-7.5v-6.8751c0-3.9584 0.62501-6.875 1.6667-8.3334 1.0416-1.4583 2.5-2.2916 4.375-2.2916h1.0416c0.20801 0 0.62501 0 0.83301 0.208z"/>
   <path d="m1006.9 1169v-7.7084c-0.208 0.208-0.625 0.208-1.0416 0.208h-1.0418c-1.6667 0-3.125-0.833-4.1667-2.2917-1.0416-1.4583-1.6666-3.9583-1.6666-7.7083v-23.75h6.8751v-8.125h-7.2918v-11.458h-8.9583v11.458h-3.3334v8.125h3.125v22.292c0 3.9584 0.417 7.5 1.6667 10 0.833 2.5 2.0833 4.375 3.5417 5.625 1.4583 1.4584 2.9166 2.2917 4.5833 2.9167 1.6667 0.417 3.125 0.625 4.5833 0.625 0.833 0 1.4584 0 2.2918-0.208h0.833z"/>
   <path d="m1062 1119.6h-7.9167l-6.25 33.75-6.0417-33.75h-6.8751l-6.0416 33.75-6.25-33.75h-8.125l10.208 49.583h7.7083l5.8334-28.333 6.0417 28.333h7.5z"/>
   <path d="m1092.5 1169.2v-35.625c0-2.9167-0.208-5.2083-1.0416-7.0833-0.625-1.6667-1.4584-3.125-2.7084-4.375-1.0416-1.0417-2.5-1.875-3.9583-2.2917-1.6667-0.625-3.3333-0.833-5-0.833-2.2917 0-3.9583 0.208-5.2083 0.417-1.25 0.417-1.875 0.417-1.875 0.417v7.7083c1.0416-0.208 2.0833-0.417 2.9166-0.625 0.833 0 1.875-0.208 3.125-0.208s2.5 0.417 3.125 1.0417c0.625 0.625 1.0417 1.6666 1.0417 3.125v1.0416c-1.0417 0-2.2917 0.625-4.1667 1.4584-1.6666 0.833-3.3333 2.0833-5 3.75-1.6667 1.6666-3.1251 3.9583-4.3751 6.4583-1.25 2.7083-1.875 6.0418-1.875 9.7918 0 2.5 0.208 4.5833 1.0417 6.6666 0.625 1.875 1.4583 3.5417 2.5 5 1.0417 1.4584 2.2918 2.7084 3.7501 3.3334 1.25 0.833 2.7083 1.25 4.1667 1.25h0.625c0.417 0 0.625 0 0.833-0.208l3.3333-3.125v2.9167zm-9.5833-10.208c-0.208 0.625-0.417 1.25-1.0417 1.875-0.417 0.625-1.0416 0.833-1.875 0.833-0.833 0-1.4583-0.625-2.2916-1.875-0.625-1.25-1.0417-3.3333-1.0417-6.4583 0-2.2917 0.208-4.375 0.833-6.0418 0.417-1.6667 1.0417-3.125 1.6667-4.375 0.833-1.0417 1.4583-1.875 2.0833-2.5 0.833-0.417 1.25-0.625 1.6667-0.833z"/>
   <path d="m1122.7 1127.7v-8.125h-1.6667c-1.25 0-2.2916 0-3.125 0.208-0.833 0.417-1.6666 0.833-2.0833 1.25-0.833 0.417-1.25 0.833-1.6667 1.25-0.417 0.417-0.625 0.833-0.833 1.25v-3.9583h-9.1668v49.583h9.5835v-31.875c0-3.125 0.833-5.4167 2.2916-7.0833 1.25-1.6667 3.3334-2.5 5.4167-2.5z"/>
   <path d="m1154.5 1133.3c0-2.5-0.417-4.7917-1.0416-6.6667-0.833-1.875-1.6667-3.3333-2.7084-4.375-1.25-1.25-2.5-2.0833-3.75-2.5-1.4583-0.417-2.7083-0.833-3.9583-0.833-1.4583 0-2.9167 0.417-4.5834 0.833-1.4584 0.625-2.9167 1.6667-4.375 3.5417-1.4584 1.875-2.5 4.375-3.5417 7.7083-0.833 3.3333-1.25 7.7083-1.25 13.125 0 5.4168 0.417 9.7918 1.4583 12.917 1.0417 3.3333 2.2917 6.0416 3.75 7.9166 1.6667 1.6667 3.3334 2.9167 5.2085 3.75 1.875 0.625 3.5416 0.833 5.4166 0.833h1.875c0.833-0.208 1.25-0.208 1.6667-0.417v-7.5c-0.417 0.208-0.833 0.208-1.25 0.208h-1.6667c-1.4583 0-2.9166-0.625-4.1666-2.2916-1.25-1.6667-2.0834-4.1667-2.2917-7.9167 1.0417 0 2.5-0.417 4.1667-1.25 1.6666-0.625 3.5416-1.875 5-3.3334 1.6666-1.4584 3.125-3.3334 4.1666-5.8334 1.25-2.0833 1.875-4.7916 1.875-7.9166zm-8.9583-0.625c0 1.6666-0.208 3.3333-0.625 4.5833-0.417 1.4583-1.0417 2.7083-1.6667 3.5417-0.625 1.0416-1.4583 1.6666-2.2916 2.2916-0.625 0.625-1.4584 0.833-2.0834 0.833-0.2081-0.208-0.2081-0.625-0.2081-1.0417v-1.25c0-3.125 0.2081-5.625 0.4171-7.7083 0.208-1.875 0.417-3.3334 0.833-4.5834 0.417-1.0416 0.833-1.875 1.4583-2.2916 0.417-0.417 0.833-0.625 1.4584-0.625 0.833 0 1.6666 0.625 2.0833 1.4583 0.417 1.0417 0.625 2.7083 0.625 4.7917z"/>
   <path d="m1195.8 1102.3v-7.5s-0.208-0.208-0.833-0.208c-0.833-0.208-1.4583-0.208-2.2916-0.208-1.4584 0-2.9167 0.208-4.5834 0.833-1.6666 0.417-3.125 1.25-4.5833 2.7083-1.4583 1.25-2.7083 3.125-3.75 5.625s-1.4583 5.8333-1.4583 9.7917v6.2501h-3.125v8.125h3.125v41.458h9.5833v-41.458h7.5v-8.125h-7.5v-6.8751c0-3.9584 0.625-6.875 1.6667-8.3334 1.0416-1.4583 2.5-2.2916 4.375-2.2916h1.0416c0.208 0 0.625 0 0.833 0.208z"/>
   <path d="m1229.9 1144.4c0-5.625-0.417-10.208-1.25-13.542-1.25-3.3334-2.2917-5.8334-3.75-7.7084-1.4584-1.6666-2.9167-2.9166-4.5834-3.3333-1.6666-0.417-3.125-0.833-4.375-0.833s-2.5 0.417-4.1666 0.833c-1.6667 0.417-3.125 1.6667-4.5834 3.3333-1.4583 1.875-2.7084 4.375-3.7501 7.7084-1.0416 3.3333-1.4583 7.9166-1.4583 13.542 0 5.6251 0.417 10 1.4583 13.334 1.0417 3.5416 2.2918 6.0416 3.7501 7.7083 1.4584 1.875 2.9167 2.9167 4.5834 3.5417 1.6666 0.417 2.9166 0.625 4.1666 0.625s2.7084-0.208 4.375-0.625c1.6667-0.625 3.125-1.6667 4.5834-3.5417 1.4583-1.6667 2.5-4.1667 3.75-7.7083 0.833-3.3334 1.25-7.7084 1.25-13.334zm-9.375 0c0 3.3334-0.208 6.2501-0.417 8.3335-0.417 2.2916-0.625 4.1666-1.0417 5.4166-0.625 1.25-1.0416 2.0834-1.4583 2.5-0.417 0.625-1.0417 0.833-1.6667 0.833s-1.25-0.208-1.6666-0.833c-0.417-0.417-0.833-1.25-1.25-2.5-0.625-1.25-0.833-3.125-1.0417-5.4166-0.417-2.0834-0.417-5.0001-0.417-8.3335 0-3.5416 0-6.4583 0.417-8.5416 0.208-2.2917 0.417-3.9584 1.0417-5.2084 0.417-1.25 0.833-2.2916 1.25-2.7083 0.417-0.625 1.0416-0.625 1.6666-0.625s1.25 0 1.6667 0.625c0.417 0.417 0.833 1.4583 1.4583 2.7083 0.417 1.25 0.625 2.9167 1.0417 5.2084 0.208 2.0833 0.417 5 0.417 8.5416z"/>
   <path d="m1259.2 1127.7v-8.125h-1.6667c-1.25 0-2.2916 0-3.125 0.208-0.833 0.417-1.6666 0.833-2.0833 1.25-0.833 0.417-1.25 0.833-1.6667 1.25-0.417 0.417-0.625 0.833-0.833 1.25v-3.9583h-9.1667v49.583h9.5834v-31.875c0-3.125 0.833-5.4167 2.2916-7.0833 1.25-1.6667 3.3334-2.5 5.4167-2.5z"/>
   <path d="m1310.4 1117.5c0-4.1667-0.625-7.9167-1.6667-10.625-1.25-2.9166-2.7083-5.2083-4.7918-7.0833-2.0833-1.6667-4.375-2.9167-6.875-3.75-2.5-0.833-5.2083-1.25-7.9166-1.25h-7.7084v74.375h10.208v-23.958c1.0416-0.208 2.5-0.833 4.5833-1.875 2.0833-1.0417 4.1667-2.7084 6.25-4.7917 2.2917-2.2917 3.9584-5 5.6251-8.5417 1.6667-3.3333 2.2917-7.5 2.2917-12.5zm-10.208-0.208c0 3.5417-0.417 6.25-1.0416 8.75-0.833 2.2917-1.6667 3.9583-2.5 5.4167-1.0417 1.4583-2.0834 2.5-2.9167 3.3333-1.0417 0.625-1.6667 1.0417-2.0833 1.0417v-32.708c1.0416 0 2.0833 0.208 3.125 0.625 1.0416 0.417 2.0833 1.25 2.9166 2.2917 0.625 1.0417 1.25 2.5 1.875 4.375 0.417 1.6667 0.625 4.1667 0.625 6.8751z"/>
   <path d="m1338.4 1127.7v-8.125h-1.6667c-1.25 0-2.2916 0-3.125 0.208-0.833 0.417-1.6666 0.833-2.0833 1.25-0.833 0.417-1.25 0.833-1.6667 1.25-0.417 0.417-0.625 0.833-0.833 1.25v-3.9583h-9.1667v49.583h9.5834v-31.875c0-3.125 0.833-5.4167 2.2916-7.0833 1.25-1.6667 3.3334-2.5 5.4167-2.5z"/>
   <path d="m1372.4 1144.4c0-5.625-0.4171-10.208-1.2501-13.542-1.25-3.3334-2.2917-5.8334-3.75-7.7084-1.4584-1.6666-2.9167-2.9166-4.5834-3.3333-1.6666-0.417-3.125-0.833-4.375-0.833s-2.5 0.417-4.1666 0.833c-1.6667 0.417-3.125 1.6667-4.5834 3.3333-1.4583 1.875-2.7083 4.375-3.75 7.7084-1.0416 3.3333-1.4583 7.9166-1.4583 13.542 0 5.6251 0.417 10 1.4583 13.334 1.0417 3.5416 2.2917 6.0416 3.75 7.7083 1.4584 1.875 2.9167 2.9167 4.5834 3.5417 1.6666 0.417 2.9166 0.625 4.1666 0.625s2.7084-0.208 4.375-0.625c1.6667-0.625 3.125-1.6667 4.5834-3.5417 1.4583-1.6667 2.5-4.1667 3.75-7.7083 0.833-3.3334 1.2501-7.7084 1.2501-13.334zm-9.3751 0c0 3.3334-0.208 6.2501-0.417 8.3335-0.417 2.2916-0.625 4.1666-1.0417 5.4166-0.625 1.25-1.0416 2.0834-1.4583 2.5-0.417 0.625-1.0417 0.833-1.6667 0.833s-1.25-0.208-1.6666-0.833c-0.417-0.417-0.833-1.25-1.25-2.5-0.625-1.25-0.833-3.125-1.0417-5.4166-0.417-2.0834-0.417-5.0001-0.417-8.3335 0-3.5416 0-6.4583 0.417-8.5416 0.208-2.2917 0.417-3.9584 1.0417-5.2084 0.417-1.25 0.833-2.2916 1.25-2.7083 0.417-0.625 1.0416-0.625 1.6666-0.625s1.25 0 1.6667 0.625c0.417 0.417 0.833 1.4583 1.4583 2.7083 0.417 1.25 0.625 2.9167 1.0417 5.2084 0.208 2.0833 0.417 5 0.417 8.5416z"/>
   <path d="m1403.5 1169.2v-7.5c-0.625 0.208-1.0417 0.208-1.4583 0.208h-1.6667c-0.625 0-1.6667-0.208-2.7083-0.625-1.0417-0.417-1.875-1.25-2.7084-2.5-0.833-1.25-1.6666-3.125-2.2916-5.4166-0.625-2.2917-0.833-5.4168-0.833-8.9585 0-3.75 0.208-6.6666 0.833-8.9583s1.4583-4.1667 2.2916-5.4167c0.833-1.25 1.6667-2.0833 2.7084-2.7083 1.0416-0.417 2.0833-0.625 2.7083-0.625h1.4583c0.417 0 0.833 0.208 1.4584 0.208v-7.5s-0.417 0-1.0417-0.208c-0.833 0-2.0833-0.208-3.5417-0.208-0.625 0-1.25 0.208-2.5 0.417-1.0416 0.208-2.0833 0.417-3.3333 1.25-1.25 0.625-2.5 1.4584-3.75 2.5-1.25 1.25-2.5 2.7084-3.5417 4.5834-1.0416 1.875-1.875 4.1666-2.5 6.875-0.625 2.7083-0.833 6.0416-0.833 9.7916s0.208 7.0835 0.833 9.5835c0.625 2.7083 1.4584 5 2.5 6.875 1.0417 2.0833 2.2917 3.5416 3.5417 4.5833 1.25 1.25 2.5 2.0833 3.75 2.7083s2.2917 1.0417 3.3333 1.25c1.25 0.208 1.875 0.208 2.5 0.208 1.4584 0 2.7084 0 3.5417-0.208 0.833 0 1.25-0.208 1.25-0.208z"/>
   <path d="m1436.5 1133.3c0-2.5-0.417-4.7917-1.0416-6.6667-0.833-1.875-1.6667-3.3333-2.7084-4.375-1.25-1.25-2.5-2.0833-3.75-2.5-1.4583-0.417-2.7083-0.833-3.9583-0.833-1.4583 0-2.9167 0.417-4.5833 0.833-1.4584 0.625-2.9167 1.6667-4.375 3.5417-1.4584 1.875-2.5 4.375-3.5417 7.7083-0.833 3.3333-1.25 7.7083-1.25 13.125 0 5.4168 0.417 9.7918 1.4583 12.917 1.0417 3.3333 2.2917 6.0416 3.75 7.9166 1.6667 1.6667 3.3334 2.9167 5.2084 3.75 1.875 0.625 3.5416 0.833 5.4166 0.833h1.875c0.833-0.208 1.25-0.208 1.6667-0.417v-7.5c-0.417 0.208-0.833 0.208-1.25 0.208h-1.6667c-1.4583 0-2.9166-0.625-4.1666-2.2916-1.25-1.6667-2.0834-4.1667-2.2917-7.9167 1.0417 0 2.5-0.417 4.1667-1.25 1.6666-0.625 3.5416-1.875 5-3.3334 1.6666-1.4584 3.125-3.3334 4.1666-5.8334 1.25-2.0833 1.875-4.7916 1.875-7.9166zm-8.9583-0.625c0 1.6666-0.208 3.3333-0.625 4.5833-0.417 1.4583-1.0417 2.7083-1.6667 3.5417-0.625 1.0416-1.4583 1.6666-2.2916 2.2916-0.625 0.625-1.4584 0.833-2.0834 0.833-0.208-0.208-0.208-0.625-0.208-1.0417v-1.25c0-3.125 0.208-5.625 0.417-7.7083 0.208-1.875 0.417-3.3334 0.833-4.5834 0.417-1.0416 0.833-1.875 1.4583-2.2916 0.417-0.417 0.833-0.625 1.4584-0.625 0.833 0 1.6666 0.625 2.0833 1.4583 0.417 1.0417 0.625 2.7083 0.625 4.7917z"/>
   <path d="m1468.4 1155.2c0-1.6667-0.208-3.3334-0.417-4.7917-0.208-1.4583-0.833-2.9168-1.4583-4.1668-0.625-1.25-1.4583-2.7083-2.5-3.9583s-2.2917-2.5-3.75-3.9583c-1.875-2.0834-3.125-3.5417-3.75-4.5834-0.625-1.25-0.833-2.2916-0.833-3.125 0-1.0416 0.417-2.0833 1.0416-2.7083 0.833-0.625 1.6667-1.0417 2.7084-1.0417 1.4583 0 2.7083 0.208 3.5416 0.625l3.5417-7.0833c-1.0417-0.417-2.0833-0.625-3.3333-1.0417-1.25-0.208-2.7084-0.417-4.1667-0.417-1.875 0-3.5417 0.417-5.2083 1.0416-1.6667 0.625-2.9167 1.4584-4.1667 2.5-1.0417 1.0417-1.875 2.5-2.7083 3.9584-0.625 1.6666-1.0417 3.3333-1.0417 5 0 1.25 0.208 2.2916 0.417 3.5416 0.208 1.0417 0.625 2.0834 1.25 3.125 0.417 1.25 1.25 2.2917 2.2916 3.5417 1.0417 1.25 2.2917 2.7083 3.75 4.1667 1.6667 2.2916 2.9167 4.1667 3.5417 5.6251 0.833 1.4583 1.0417 3.125 1.0417 4.7916 0 1.4584-0.417 2.7084-1.4584 3.75-1.0416 1.0417-2.5 1.4584-3.75 1.4584-0.833 0-1.4583 0-2.2916-0.208-0.625 0-1.25-0.417-1.875-0.625l-3.75 7.2917c2.5 1.25 5.2083 1.6667 8.75 1.6667 1.875 0 3.75-0.417 5.625-1.0417 1.875-0.625 3.3333-1.6667 4.7916-2.9167 1.25-1.25 2.2917-2.7083 3.125-4.5833 0.833-1.875 1.0417-3.75 1.0417-5.8333z"/>
   <path d="m1497.2 1155.2c0-1.6667-0.208-3.3334-0.417-4.7917-0.208-1.4583-0.833-2.9168-1.4583-4.1668-0.625-1.25-1.4583-2.7083-2.5-3.9583s-2.2917-2.5-3.75-3.9583c-1.875-2.0834-3.125-3.5417-3.75-4.5834-0.625-1.25-0.833-2.2916-0.833-3.125 0-1.0416 0.417-2.0833 1.0416-2.7083 0.833-0.625 1.6667-1.0417 2.7084-1.0417 1.4583 0 2.7083 0.208 3.5416 0.625l3.5417-7.0833c-1.0417-0.417-2.0833-0.625-3.3333-1.0417-1.25-0.208-2.7084-0.417-4.1667-0.417-1.875 0-3.5417 0.417-5.2083 1.0416-1.6667 0.625-2.9167 1.4584-4.1667 2.5-1.0417 1.0417-1.875 2.5-2.7083 3.9584-0.625 1.6666-1.0417 3.3333-1.0417 5 0 1.25 0.208 2.2916 0.417 3.5416 0.208 1.0417 0.625 2.0834 1.25 3.125 0.417 1.25 1.25 2.2917 2.2916 3.5417 1.0417 1.25 2.2917 2.7083 3.75 4.1667 1.6667 2.2916 2.9167 4.1667 3.5417 5.6251 0.833 1.4583 1.0417 3.125 1.0417 4.7916 0 1.4584-0.417 2.7084-1.4584 3.75-1.0416 1.0417-2.5 1.4584-3.75 1.4584-0.833 0-1.4583 0-2.2916-0.208-0.625 0-1.25-0.417-1.875-0.625l-3.75 7.2917c2.5 1.25 5.2083 1.6667 8.75 1.6667 1.875 0 3.75-0.417 5.625-1.0417 1.875-0.625 3.3333-1.6667 4.7916-2.9167 1.25-1.25 2.2917-2.7083 3.125-4.5833 0.833-1.875 1.0417-3.75 1.0417-5.8333z"/>
   <path d="m1549.9 1094.8h-10.625l-22.5 74.375h10.625z"/>
   <path d="m1602.8 1144.6c0-2.7084-0.417-5-0.833-7.2917-0.625-2.2917-1.25-4.1667-2.0833-5.8333-0.833-1.4584-1.6667-2.9167-2.7083-3.9584-0.833-1.0416-1.6667-1.875-2.2917-2.5 0.417-0.208 1.0417-0.833 1.6667-1.4583 0.625-0.833 1.25-1.6667 1.875-2.7083 0.625-1.0417 1.0416-2.2917 1.4583-3.75 0.417-1.4584 0.625-3.1251 0.625-5.0001 0-3.125-0.625-5.8334-1.875-7.9167-1.25-2.2917-2.7083-3.9583-4.5833-5.4167-1.875-1.4583-3.9584-2.2916-6.25-3.125-2.2917-0.417-4.5834-0.833-7.0834-0.833h-8.125v74.375h7.9167c2.7083 0 5.4167-0.417 7.9167-1.25 2.7083-0.625 5-1.875 7.2916-3.75 2.0834-1.875 3.75-4.375 5.2084-7.5 1.25-3.125 1.875-7.0833 1.875-12.083zm-12.5-32.5c0 3.1251-0.833 5.2084-2.0834 6.6667-1.4583 1.4584-3.3333 2.2917-5.4166 2.2917v-17.917c2.0833 0 3.9583 0.833 5.4166 2.2917 1.4584 1.4583 2.0834 3.5417 2.0834 6.6667zm2.0833 32.5c0 3.125-0.208 5.8334-0.833 7.9167-0.833 2.0834-1.4584 3.75-2.2917 5-1.0417 1.25-2.0833 2.2917-3.125 2.7084-1.25 0.417-2.2917 0.833-3.3333 0.833v-31.458c0.417 0 1.25-0.208 2.0833-0.417 0.833 0 1.4583-0.208 2.0833-0.417 0.417 0.625 0.833 1.25 1.4584 2.0834 0.625 0.833 1.25 1.875 1.875 3.3333 0.417 1.25 1.0416 2.9167 1.4583 4.5833 0.417 1.6667 0.625 3.75 0.625 5.8334z"/>
   <path d="m1636.7 1169.2v-35.625c0-2.9167-0.208-5.2083-1.0416-7.0833-0.625-1.6667-1.4584-3.125-2.7084-4.375-1.0416-1.0417-2.5-1.875-3.9583-2.2917-1.6667-0.625-3.3333-0.833-5-0.833-2.2917 0-3.9583 0.208-5.2083 0.417-1.25 0.417-1.875 0.417-1.875 0.417v7.7083c1.0416-0.208 2.0833-0.417 2.9166-0.625 0.833 0 1.875-0.208 3.125-0.208s2.5 0.417 3.125 1.0417c0.625 0.625 1.0417 1.6666 1.0417 3.125v1.0416c-1.0417 0-2.2917 0.625-4.1667 1.4584-1.6666 0.833-3.3333 2.0833-5 3.75-1.6666 1.6666-3.125 3.9583-4.375 6.4583-1.25 2.7083-1.875 6.0418-1.875 9.7918 0 2.5 0.208 4.5833 1.0417 6.6666 0.625 1.875 1.4583 3.5417 2.5 5 1.0417 1.4584 2.2917 2.7084 3.75 3.3334 1.25 0.833 2.7083 1.25 4.1667 1.25h0.625c0.417 0 0.625 0 0.833-0.208l3.3333-3.125v2.9167zm-9.5833-10.208c-0.208 0.625-0.417 1.25-1.0417 1.875-0.417 0.625-1.0416 0.833-1.875 0.833-0.833 0-1.4583-0.625-2.2916-1.875-0.625-1.25-1.0417-3.3333-1.0417-6.4583 0-2.2917 0.208-4.375 0.833-6.0418 0.417-1.6667 1.0417-3.125 1.6667-4.375 0.833-1.0417 1.4583-1.875 2.0833-2.5 0.833-0.417 1.25-0.625 1.6667-0.833z"/>
   <path d="m1667.1 1169v-7.7084c-0.208 0.208-0.625 0.208-1.0416 0.208h-1.0417c-1.6667 0-3.125-0.833-4.1667-2.2917-1.0416-1.4583-1.6666-3.9583-1.6666-7.7083v-23.75h6.875v-8.125h-7.2917v-11.458h-8.9583v11.458h-3.3334v8.125h3.125v22.292c0 3.9584 0.417 7.5 1.6667 10 0.833 2.5 2.0833 4.375 3.5417 5.625 1.4583 1.4584 2.9166 2.2917 4.5833 2.9167 1.6667 0.417 3.125 0.625 4.5833 0.625 0.833 0 1.4584 0 2.2917-0.208h0.833z"/>
   <path d="m1696.4 1169.2v-7.5c-0.625 0.208-1.0417 0.208-1.4583 0.208h-1.6667c-0.625 0-1.6667-0.208-2.7083-0.625-1.0417-0.417-1.875-1.25-2.7084-2.5-0.833-1.25-1.6666-3.125-2.2916-5.4166-0.625-2.2917-0.833-5.4168-0.833-8.9585 0-3.75 0.208-6.6666 0.833-8.9583s1.4583-4.1667 2.2916-5.4167c0.833-1.25 1.6667-2.0833 2.7084-2.7083 1.0416-0.417 2.0833-0.625 2.7083-0.625h1.4583c0.417 0 0.833 0.208 1.4584 0.208v-7.5s-0.417 0-1.0417-0.208c-0.833 0-2.0833-0.208-3.5417-0.208-0.625 0-1.25 0.208-2.5 0.417-1.0416 0.208-2.0833 0.417-3.3333 1.25-1.25 0.625-2.5 1.4584-3.75 2.5-1.25 1.25-2.5 2.7084-3.5417 4.5834-1.0416 1.875-1.875 4.1666-2.5 6.875-0.625 2.7083-0.833 6.0416-0.833 9.7916s0.208 7.0835 0.833 9.5835c0.625 2.7083 1.4584 5 2.5 6.875 1.0417 2.0833 2.2917 3.5416 3.5417 4.5833 1.25 1.25 2.5 2.0833 3.75 2.7083s2.2917 1.0417 3.3333 1.25c1.25 0.208 1.875 0.208 2.5 0.208 1.4584 0 2.7084 0 3.5417-0.208 0.833 0 1.25-0.208 1.25-0.208z"/>
   <path d="m1733.8 1169.2v-32.917c0-5.8333-1.25-10.208-3.5417-13.125-2.5-2.7083-5.625-4.1666-9.7917-4.1666-0.833 0-1.25 0-1.6666 0.208l-2.5 2.5v-26.875h-9.1667v74.375h9.5833v-35.417c0-1.875 0.208-3.3333 1.0417-4.5833 0.625-1.25 1.4583-1.875 2.7083-1.875 1.0417 0 2.0834 0.625 2.7084 1.875s1.0416 2.7083 1.0416 4.5833v35.417z"/>
   <path d="m1796.7 1169.2v-74.375h-5l-13.75 38.75-13.75-38.75h-4.7917v74.375h9.7917v-39.583l6.4584 19.375h4.5834l6.4583-19.375v39.583z"/>
   <path d="m1832.4 1169.2v-35.625c0-2.9167-0.208-5.2083-1.0416-7.0833-0.625-1.6667-1.4584-3.125-2.7084-4.375-1.0416-1.0417-2.5-1.875-3.9583-2.2917-1.6667-0.625-3.3333-0.833-5-0.833-2.2917 0-3.9583 0.208-5.2083 0.417-1.25 0.417-1.875 0.417-1.875 0.417v7.7083c1.0416-0.208 2.0833-0.417 2.9166-0.625 0.833 0 1.875-0.208 3.125-0.208s2.5 0.417 3.125 1.0417c0.625 0.625 1.0417 1.6666 1.0417 3.125v1.0416c-1.0417 0-2.2917 0.625-4.1667 1.4584-1.6666 0.833-3.3333 2.0833-5 3.75-1.6666 1.6666-3.125 3.9583-4.375 6.4583-1.25 2.7083-1.875 6.0418-1.875 9.7918 0 2.5 0.208 4.5833 1.0417 6.6666 0.625 1.875 1.4583 3.5417 2.5 5 1.0417 1.4584 2.2917 2.7084 3.75 3.3334 1.25 0.833 2.7083 1.25 4.1667 1.25h0.625c0.417 0 0.625 0 0.833-0.208l3.3333-3.125v2.9167zm-9.5833-10.208c-0.208 0.625-0.417 1.25-1.0417 1.875-0.417 0.625-1.0416 0.833-1.875 0.833-0.833 0-1.4583-0.625-2.2916-1.875-0.625-1.25-1.0417-3.3333-1.0417-6.4583 0-2.2917 0.208-4.375 0.833-6.0418 0.417-1.6667 1.0417-3.125 1.6667-4.375 0.833-1.0417 1.4583-1.875 2.0833-2.5 0.833-0.417 1.25-0.625 1.6667-0.833z"/>
   <path d="m1870.7 1169.2v-32.917c0-5.8333-1.0417-10.208-3.5417-13.125-2.2916-2.7083-5.625-4.1666-9.7916-4.1666-0.625 0-1.25 0-1.4584 0.208l-3.125 2.9167v-2.5h-8.75v49.583h9.5834v-35.417c0-1.875 0.417-3.3333 1.0416-4.5833 0.625-1.25 1.6667-1.875 2.7084-1.875 1.0416 0 2.0833 0.625 2.7083 1.875 0.833 1.25 1.0417 2.7083 1.0417 4.5833v35.417z"/>
   <path d="m1909 1152.3v-32.708h-9.5834v35.417c0 1.6667-0.208 3.3334-1.0417 4.5834-0.625 1.25-1.6667 1.875-2.7083 1.875-1.0417 0-2.0834-0.625-2.7084-1.875s-1.0416-2.9167-1.0416-4.5834v-35.417h-9.5834v32.708c0 6.0417 1.25 10.417 3.75 13.125s5.625 4.1667 9.5834 4.1667c3.9583 0 7.2916-1.4584 9.7916-4.1667 2.2918-2.7083 3.5418-7.0833 3.5418-13.125z"/>
   <path d="m1939.6 1102.3v-7.5s-0.208-0.208-0.8331-0.208c-0.833-0.208-1.4583-0.208-2.2916-0.208-1.4584 0-2.9167 0.208-4.5834 0.833-1.6666 0.417-3.125 1.25-4.5833 2.7083-1.4583 1.25-2.7083 3.125-3.75 5.625s-1.4583 5.8333-1.4583 9.7917v6.2501h-3.125v8.125h3.125v41.458h9.5833v-41.458h7.5001v-8.125h-7.5001v-6.8751c0-3.9584 0.625-6.875 1.6667-8.3334 1.0416-1.4583 2.5-2.2916 4.375-2.2916h1.0416c0.2081 0 0.6251 0 0.8331 0.208z"/>
   <path d="m1969.7 1169.2v-35.625c0-2.9167-0.208-5.2083-1.0416-7.0833-0.625-1.6667-1.4584-3.125-2.7084-4.375-1.0416-1.0417-2.5-1.875-3.9583-2.2917-1.6667-0.625-3.3333-0.833-5-0.833-2.2917 0-3.9583 0.208-5.2083 0.417-1.25 0.417-1.875 0.417-1.875 0.417v7.7083c1.0416-0.208 2.0833-0.417 2.9166-0.625 0.833 0 1.875-0.208 3.125-0.208s2.5 0.417 3.125 1.0417c0.625 0.625 1.0417 1.6666 1.0417 3.125v1.0416c-1.0417 0-2.2917 0.625-4.1667 1.4584-1.6666 0.833-3.3333 2.0833-5 3.75-1.6666 1.6666-3.125 3.9583-4.375 6.4583-1.25 2.7083-1.875 6.0418-1.875 9.7918 0 2.5 0.208 4.5833 1.0417 6.6666 0.625 1.875 1.4583 3.5417 2.5 5 1.0417 1.4584 2.2917 2.7084 3.75 3.3334 1.25 0.833 2.7083 1.25 4.1667 1.25h0.625c0.417 0 0.625 0 0.833-0.208l3.3333-3.125v2.9167zm-9.5833-10.208c-0.208 0.625-0.417 1.25-1.0417 1.875-0.417 0.625-1.0416 0.833-1.875 0.833-0.833 0-1.4583-0.625-2.2916-1.875-0.625-1.25-1.0417-3.3333-1.0417-6.4583 0-2.2917 0.208-4.375 0.833-6.0418 0.417-1.6667 1.0417-3.125 1.6667-4.375 0.833-1.0417 1.4583-1.875 2.0833-2.5 0.833-0.417 1.25-0.625 1.6667-0.833z"/>
   <path d="m2001.8 1169.2v-7.5c-0.625 0.208-1.0417 0.208-1.4583 0.208h-1.6667c-0.625 0-1.6667-0.208-2.7083-0.625-1.0417-0.417-1.875-1.25-2.7084-2.5-0.833-1.25-1.6666-3.125-2.2916-5.4166-0.625-2.2917-0.833-5.4168-0.833-8.9585 0-3.75 0.208-6.6666 0.833-8.9583s1.4583-4.1667 2.2916-5.4167c0.833-1.25 1.6667-2.0833 2.7084-2.7083 1.0416-0.417 2.0833-0.625 2.7083-0.625h1.4583c0.417 0 0.833 0.208 1.4584 0.208v-7.5s-0.417 0-1.0417-0.208c-0.833 0-2.0833-0.208-3.5417-0.208-0.625 0-1.25 0.208-2.5 0.417-1.0416 0.208-2.0833 0.417-3.3333 1.25-1.25 0.625-2.5 1.4584-3.75 2.5-1.25 1.25-2.5 2.7084-3.5417 4.5834-1.0416 1.875-1.875 4.1666-2.5 6.875-0.625 2.7083-0.833 6.0416-0.833 9.7916s0.208 7.0835 0.833 9.5835c0.625 2.7083 1.4584 5 2.5 6.875 1.0417 2.0833 2.2917 3.5416 3.5417 4.5833 1.25 1.25 2.5 2.0833 3.75 2.7083s2.2917 1.0417 3.3333 1.25c1.25 0.208 1.875 0.208 2.5 0.208 1.4584 0 2.7084 0 3.5417-0.208 0.833 0 1.25-0.208 1.25-0.208z"/>
   <path d="m2031.3 1169v-7.7084c-0.208 0.208-0.625 0.208-1.0416 0.208h-1.0417c-1.6667 0-3.125-0.833-4.1667-2.2917-1.0416-1.4583-1.6666-3.9583-1.6666-7.7083v-23.75h6.875v-8.125h-7.2917v-11.458h-8.9583v11.458h-3.3334v8.125h3.125v22.292c0 3.9584 0.417 7.5 1.6667 10 0.833 2.5 2.0833 4.375 3.5417 5.625 1.4583 1.4584 2.9166 2.2917 4.5833 2.9167 1.6667 0.417 3.125 0.625 4.5833 0.625 0.833 0 1.4584 0 2.2917-0.208h0.833z"/>
   <path d="m2066.9 1152.3v-32.708h-9.5833v35.417c0 1.6667-0.208 3.3334-1.0417 4.5834-0.625 1.25-1.6667 1.875-2.7083 1.875-1.0417 0-2.0834-0.625-2.7084-1.875s-1.0416-2.9167-1.0416-4.5834v-35.417h-9.5834v32.708c0 6.0417 1.25 10.417 3.75 13.125s5.625 4.1667 9.5834 4.1667c3.9583 0 7.2916-1.4584 9.7916-4.1667 2.2917-2.7083 3.5417-7.0833 3.5417-13.125z"/>
   <path d="m2097.1 1127.7v-8.125h-1.6667c-1.25 0-2.2916 0-3.125 0.208-0.833 0.417-1.6666 0.833-2.0833 1.25-0.833 0.417-1.25 0.833-1.6667 1.25-0.417 0.417-0.625 0.833-0.833 1.25v-3.9583h-9.1667v49.583h9.5834v-31.875c0-3.125 0.833-5.4167 2.2916-7.0833 1.25-1.6667 3.3334-2.5 5.4167-2.5z"/>
   <path d="m2128.9 1133.3c0-2.5-0.417-4.7917-1.0416-6.6667-0.833-1.875-1.6667-3.3333-2.7084-4.375-1.25-1.25-2.5-2.0833-3.75-2.5-1.4583-0.417-2.7083-0.833-3.9583-0.833-1.4583 0-2.9167 0.417-4.5833 0.833-1.4584 0.625-2.9167 1.6667-4.375 3.5417-1.4584 1.875-2.5 4.375-3.5418 7.7083-0.833 3.3333-1.25 7.7083-1.25 13.125 0 5.4168 0.417 9.7918 1.4583 12.917 1.0418 3.3333 2.2918 6.0416 3.7501 7.9166 1.6667 1.6667 3.3334 2.9167 5.2084 3.75 1.875 0.625 3.5416 0.833 5.4166 0.833h1.875c0.833-0.208 1.25-0.208 1.6667-0.417v-7.5c-0.417 0.208-0.833 0.208-1.25 0.208h-1.6667c-1.4583 0-2.9166-0.625-4.1666-2.2916-1.25-1.6667-2.0834-4.1667-2.2917-7.9167 1.0417 0 2.5-0.417 4.1667-1.25 1.6666-0.625 3.5416-1.875 5-3.3334 1.6666-1.4584 3.125-3.3334 4.1666-5.8334 1.25-2.0833 1.875-4.7916 1.875-7.9166zm-8.9583-0.625c0 1.6666-0.208 3.3333-0.625 4.5833-0.417 1.4583-1.0417 2.7083-1.6667 3.5417-0.625 1.0416-1.4583 1.6666-2.2916 2.2916-0.625 0.625-1.4584 0.833-2.0834 0.833-0.208-0.208-0.208-0.625-0.208-1.0417v-1.25c0-3.125 0.208-5.625 0.417-7.7083 0.208-1.875 0.417-3.3334 0.833-4.5834 0.417-1.0416 0.833-1.875 1.4583-2.2916 0.417-0.417 0.833-0.625 1.4584-0.625 0.833 0 1.6666 0.625 2.0833 1.4583 0.417 1.0417 0.625 2.7083 0.625 4.7917z"/>
   <path d="m2157 1127.7v-8.125h-1.6667c-1.25 0-2.2916 0-3.125 0.208-0.833 0.417-1.6666 0.833-2.0833 1.25-0.833 0.417-1.25 0.833-1.6667 1.25-0.417 0.417-0.625 0.833-0.833 1.25v-3.9583h-9.1668v49.583h9.5835v-31.875c0-3.125 0.833-5.4167 2.2916-7.0833 1.25-1.6667 3.3334-2.5 5.4167-2.5z"/>
   <path d="m2186.9 1155.2c0-1.6667-0.208-3.3334-0.417-4.7917-0.208-1.4583-0.833-2.9168-1.4583-4.1668-0.625-1.25-1.4583-2.7083-2.5-3.9583s-2.2917-2.5-3.75-3.9583c-1.875-2.0834-3.125-3.5417-3.75-4.5834-0.625-1.25-0.833-2.2916-0.833-3.125 0-1.0416 0.417-2.0833 1.0416-2.7083 0.833-0.625 1.6667-1.0417 2.7084-1.0417 1.4583 0 2.7083 0.208 3.5416 0.625l3.5417-7.0833c-1.0417-0.417-2.0833-0.625-3.3333-1.0417-1.25-0.208-2.7084-0.417-4.1667-0.417-1.875 0-3.5417 0.417-5.2083 1.0416-1.6668 0.625-2.9168 1.4584-4.1668 2.5-1.0417 1.0417-1.875 2.5-2.7083 3.9584-0.625 1.6666-1.0417 3.3333-1.0417 5 0 1.25 0.208 2.2916 0.417 3.5416 0.208 1.0417 0.625 2.0834 1.25 3.125 0.417 1.25 1.25 2.2917 2.2916 3.5417 1.0417 1.25 2.2917 2.7083 3.75 4.1667 1.6668 2.2916 2.9168 4.1667 3.5418 5.6251 0.833 1.4583 1.0417 3.125 1.0417 4.7916 0 1.4584-0.417 2.7084-1.4584 3.75-1.0416 1.0417-2.5 1.4584-3.7501 1.4584-0.833 0-1.4583 0-2.2916-0.208-0.625 0-1.25-0.417-1.875-0.625l-3.75 7.2917c2.5 1.25 5.2083 1.6667 8.7501 1.6667 1.875 0 3.75-0.417 5.625-1.0417 1.875-0.625 3.3333-1.6667 4.7916-2.9167 1.25-1.25 2.2917-2.7083 3.125-4.5833 0.833-1.875 1.0417-3.75 1.0417-5.8333z"/>
   <path d="m2206.8 796.58h-6.2501v11.927h6.2501c3.4894 0 5.9894-0.416 7.3957-1.3027 1.4063-0.88501 2.1355-2.3957 2.1355-4.4791 0-2.1876-0.781-3.75-2.2396-4.7396-1.5104-0.937-3.9583-1.4062-7.2916-1.4062zm0.937-3.3855c4.6875 0 8.1249 0.72901 10.417 2.2396 2.2396 1.4584 3.3333 3.8022 3.3333 6.9271 0 2.3437-0.729 4.3229-2.1355 5.8855-1.4062 1.5625-3.3333 2.552-5.7292 2.8645l7.448 15.365h-5.7292l-7.031-14.636h-7.7605v14.636h-5v-33.282zm24.896 17.188c0-3.4895-0.625-6.8228-1.8751-9.9479-1.3027-3.1249-3.0729-5.8854-5.4688-8.2812-2.5-2.448-5.2604-4.3229-8.4375-5.5729-3.1249-1.3027-6.4582-1.9792-10-1.9792-3.3854 0-6.6667 0.625-9.7397 1.8751-3.0208 1.3013-5.7812 3.1249-8.177 5.5208-2.5 2.552-4.4271 5.4166-5.7812 8.5416-1.3027 3.125-1.9792 6.4062-1.9792 9.7917 0 3.3853 0.677 6.6145 1.9792 9.7396 1.3026 3.0729 3.177 5.8853 5.6249 8.3333 2.448 2.4479 5.2604 4.323 8.3333 5.625 3.1251 1.3026 6.3543 1.927 9.7397 1.927 3.4375 0 6.7188-0.625 9.8959-1.927 3.1771-1.3542 5.9896-3.2292 8.5416-5.6771 2.3959-2.3437 4.2188-5.0521 5.4688-8.0729 1.2493-3.0208 1.8751-6.302 1.8751-9.8959zm-25.781-29.01c4.0104 0 7.7604 0.729 11.302 2.1876 3.4896 1.4583 6.6145 3.5416 9.3229 6.302 2.6563 2.6563 4.7396 5.7813 6.1457 9.2708 1.4584 3.5417 2.1355 7.2396 2.1355 11.146 0 3.9584-0.677 7.6562-2.0833 11.094-1.4063 3.4376-3.4896 6.5104-6.1979 9.1667-2.8125 2.8125-5.9896 4.948-9.5833 6.4584-3.5418 1.4582-7.1876 2.1874-11.042 2.1874s-7.5001-0.729-10.99-2.1874c-3.4896-1.4584-6.6145-3.5418-9.3229-6.3542-2.8124-2.7084-4.8957-5.8333-6.3541-9.3229-1.4063-3.5417-2.1354-7.1876-2.1354-11.042 0-3.802 0.729-7.4479 2.2395-10.99 1.4584-3.5938 3.5939-6.7708 6.4063-9.5834 2.6562-2.7082 5.677-4.7916 9.1146-6.1978 3.4375-1.4063 7.1354-2.1355 11.042-2.1355"/>
  </g>
 </g>
</svg>
